# xmcd
#
# Track frame offsets:
#	150
#	15464
#	28755
#	44170
#	56690
#	71796
#	87533
#	101912
#	116301
#	132283
#	146564
#	160644
#	177558
#	193554
#	209161
#	224918
#	238859
#	256653
#	270101
#	285846
#	301729
#
# Disc length: 4232 seconds
#
# Revision: 1
# Processed by: cddbd v1.5.2PL0 Copyright (c) Steve Scherf et al.
# Submitted via: audiograbber 1.83.01
#
DISCID=3c108615
DTITLE=Varius - Chartboxx 4/2016
DYEAR=1900
DGENRE=
TTITLE0=Sigala - Sweet Lovin'
TTITLE1=Stereoact - Der Himmel reisst auf
TTITLE2=Topic - Home
TTITLE3=Major Lazer - Light It Up (Remix)
TTITLE4=Gestoert aber geil - Glücklich wie die Kinder
TTITLE5=The Bosshoss - Jolene
TTITLE6=Charlie Puth - One Call Away
TTITLE7=Daya - Hide Away
TTITLE8=DJ Antoine - London (DJ Antoine vs Mad Mark 2k16 Radio Edit)
TTITLE9=Eva Simons - Bludfire
TTITLE10=Galantis - No Money
TTITLE11=Ali As feat. Namika - Lass sie tanzen (Square Dance)
TTITLE12=Sean Finn - We Are One (Sean Finn Edit)
TTITLE13=Olli Gabriel - Running Man
TTITLE14=Izzy Bizu - White Tiger
TTITLE15=Nena - Genau jetzt
TTITLE16=Fleur east - Sax
TTITLE17=Lou Bega - Hands Up For Love
TTITLE18=Julian le Play - Hand in Hand
TTITLE19=Kontra K - An deiner Seite
TTITLE20=Scooter - Mary Got No Lamb
EXTD=
EXTT0=
EXTT1=
EXTT2=
EXTT3=
EXTT4=
EXTT5=
EXTT6=
EXTT7=
EXTT8=
EXTT9=
EXTT10=
EXTT11=
EXTT12=
EXTT13=
EXTT14=
EXTT15=
EXTT16=
EXTT17=
EXTT18=
EXTT19=
EXTT20=
PLAYORDER=
